<?xml version="1.0" encoding="UTF-8"?>
<!-- The Best Svg Icon site in the world: iconSvg.co, Visit us! https://iconsvg.co -->
<svg fill="#000000" width="800px" height="800px" version="1.1" viewBox="144 144 512 512" xmlns="http://www.w3.org/2000/svg">
 <g>
  <path d="m411.18 168.4c-2.9492-2.9297-6.9375-4.5781-11.098-4.5781s-8.1523 1.6484-11.102 4.5781l-220.42 220.42h0.003906c-3.4727 4.0547-4.6523 9.5898-3.1406 14.707 1.5117 5.1172 5.5156 9.1172 10.633 10.633 5.1172 1.5117 10.652 0.33203 14.707-3.1406l24.246-24.246 27.551 235.53c0.46484 3.8398 2.3242 7.375 5.2305 9.9297 2.9023 2.5547 6.6445 3.9531 10.512 3.9258h283.39c3.8672 0.027344 7.6094-1.3711 10.516-3.9258 2.9023-2.5547 4.7656-6.0898 5.2266-9.9297l27.711-236.16 24.246 24.246c4.0547 3.4688 9.5898 4.6523 14.707 3.1367 5.1172-1.5117 9.1172-5.5156 10.633-10.633 1.5117-5.1172 0.32812-10.652-3.1406-14.703zm116.51 436.27h-255.37l-29.754-246.24 157.44-157.44 157.44 157.44z"/>
  <path d="m330.57 358.75c-12.586 5.9531-23.152 15.465-30.398 27.355-7.2461 11.887-10.855 25.641-10.379 39.555 0 21.727 11.18 76.672 104.23 114.77 3.832 1.5781 8.1328 1.5781 11.965 0 93.047-38.098 104.23-93.203 104.23-114.77 0.50781-13.941-3.0859-27.727-10.332-39.648-7.25-11.922-17.832-21.453-30.445-27.422-11.32-4.793-23.707-6.5039-35.906-4.9531-12.195 1.5469-23.762 6.3008-33.523 13.773-9.7773-7.4492-21.355-12.172-33.551-13.691-12.195-1.5234-24.574 0.21484-35.883 5.0312zm125.95 28.812c6.9648 3.4258 12.773 8.8125 16.719 15.496 3.9453 6.6875 5.8477 14.379 5.4805 22.129 0 31.488-29.758 62.188-78.719 83.602-48.965-21.57-78.719-52.426-78.719-83.602h-0.003906c-0.39844-7.7773 1.4922-15.504 5.4375-22.219 3.9453-6.7148 9.7734-12.129 16.762-15.566 7.9453-2.8125 16.551-3.1914 24.711-1.0898 8.1602 2.1055 15.512 6.5938 21.105 12.898 2.9102 2.6992 6.7344 4.1992 10.707 4.1992 3.9688 0 7.793-1.5 10.703-4.1992 5.5703-6.3398 12.918-10.855 21.09-12.961s16.785-1.7031 24.727 1.1523z"/>
 </g>
</svg>